<?xml version="1.0" encoding="utf-8"?>
<!-- Generator: Adobe Illustrator 24.3.0, SVG Export Plug-In . SVG Version: 6.00 Build 0)  -->
<svg version="1.1" id="Ebene_1" xmlns="http://www.w3.org/2000/svg" xmlns:xlink="http://www.w3.org/1999/xlink" x="0px" y="0px"
	 width="400px" height="138.6px" viewBox="0 0 400 138.6" style="enable-background:new 0 0 400 138.6;" xml:space="preserve">
<style type="text/css">
	.st0{fill:#FF7F00;}
	.st1{fill:#00143C;}
</style>
<path class="st0" d="M65.6,40.6c-13.2,0-24.5,10.3-24.9,23.5C40.1,78,51.2,89.3,65,89.3c13.5,0,24.4-10.9,24.4-24.4v-4.1H73.1v3.7
	c0,4.3-3.2,8.1-7.5,8.4c-4.9,0.4-9-3.7-8.7-8.7c0.3-4.3,4.1-7.5,8.4-7.5c3,0,48.4,0,48.4,0v7.3c0,26.7-21.2,49.1-47.9,49.5
	c-27.3,0.5-49.5-21.5-49.5-48.7C16.2,38,38,16.2,65,16.2l0,0h8.1v20.3h16.2V8.1c0-4.5-3.6-8.1-8.1-8.1H65l0,0
	C28.1,0-1.6,30.8,0.1,68c1.5,33.3,28.5,60.3,61.8,61.8c37.3,1.7,68-28,68-64.9V48.7c0-4.5-3.6-8.1-8.1-8.1L65.6,40.6z"/>
<g>
	<path class="st1" d="M154.2,40.6h14.7c11.9,0,20,8.1,20,18.7v0.1c0,10.6-8.2,18.8-20,18.8h-14.7V40.6z M162.5,48.1v22.7h6.4
		c6.8,0,11.4-4.6,11.4-11.2v-0.1c0-6.7-4.6-11.4-11.4-11.4L162.5,48.1L162.5,48.1z"/>
	<path class="st1" d="M193.7,64v-0.1c0-8.2,5.9-15,14.3-15c9.6,0,14.1,7.5,14.1,15.7c0,0.6-0.1,1.4-0.1,2.1h-20.1
		c0.8,3.7,3.4,5.7,7.1,5.7c2.8,0,4.7-0.9,7-3l4.7,4.2c-2.7,3.3-6.6,5.4-11.8,5.4C200.1,78.9,193.7,72.9,193.7,64z M214,61.6
		c-0.5-3.7-2.7-6.1-6.1-6.1c-3.4,0-5.6,2.4-6.2,6.1H214z"/>
	<path class="st1" d="M227.5,68.1V49.4h8.2v16.1c0,3.9,1.8,5.9,4.9,5.9c3.1,0,5.1-2,5.1-5.9V49.4h8.2v28.9h-8.2v-4.1
		c-1.9,2.4-4.3,4.6-8.5,4.6C231.1,78.8,227.5,74.7,227.5,68.1z"/>
	<path class="st1" d="M262.5,70.1V56.5h-3.4v-7h3.4v-7.4h8.2v7.4h6.8v7h-6.8v12.3c0,1.9,0.8,2.8,2.6,2.8c1.5,0,2.9-0.4,4-1v6.6
		c-1.7,1-3.7,1.7-6.5,1.7C265.9,78.8,262.5,76.8,262.5,70.1z"/>
	<path class="st1" d="M281,74.5l3.5-5.4c3.1,2.3,6.4,3.4,9.1,3.4c2.4,0,3.4-0.9,3.4-2.1v-0.1c0-1.8-2.8-2.4-6-3.3
		c-4-1.2-8.6-3.1-8.6-8.7v-0.1c0-5.9,4.7-9.2,10.6-9.2c3.7,0,7.6,1.2,10.8,3.3l-3.1,5.7c-2.9-1.7-5.7-2.7-7.8-2.7c-2,0-3,0.9-3,2
		v0.1c0,1.6,2.8,2.4,5.9,3.4c4,1.4,8.7,3.3,8.7,8.6v0.1c0,6.4-4.8,9.3-11,9.3C289.4,78.8,284.9,77.5,281,74.5z"/>
	<path class="st1" d="M308.2,64v-0.1c0-8.2,6.3-15,15.1-15c5.4,0,8.8,1.8,11.5,4.8l-5,5.4c-1.8-1.9-3.7-3.2-6.6-3.2
		c-4.1,0-7,3.6-7,7.9v0.1c0,4.4,2.9,8,7.3,8c2.8,0,4.6-1.2,6.6-3.1l4.8,4.8c-2.8,3.1-6,5.3-11.8,5.3C314.6,78.9,308.2,72.3,308.2,64
		z"/>
	<path class="st1" d="M339.7,39h8.2v14.5c1.9-2.4,4.3-4.6,8.5-4.6c6.2,0,9.8,4.1,9.8,10.7v18.7H358V62.2c0-3.9-1.8-5.9-4.9-5.9
		c-3.1,0-5.1,2-5.1,5.9v16.1h-8.2V39z"/>
	<path class="st1" d="M371.7,64v-0.1c0-8.2,5.9-15,14.3-15c9.6,0,14.1,7.5,14.1,15.7c0,0.6-0.1,1.4-0.1,2.1h-20.1
		c0.8,3.7,3.4,5.7,7.1,5.7c2.8,0,4.7-0.9,7-3l4.7,4.2c-2.7,3.3-6.6,5.4-11.8,5.4C378.1,78.9,371.7,72.9,371.7,64z M392,61.6
		c-0.5-3.7-2.7-6.1-6.1-6.1c-3.4,0-5.6,2.4-6.2,6.1H392z"/>
</g>
<g>
	<path class="st1" d="M151.5,111.2v-0.1c0-10.7,8.3-19.5,19.8-19.5c6.8,0,10.9,1.8,14.8,5.2l-5.2,6.3c-2.9-2.4-5.5-3.8-9.9-3.8
		c-6,0-10.8,5.3-10.8,11.7v0.1c0,6.9,4.7,12,11.4,12c3,0,5.7-0.8,7.8-2.3v-5.4h-8.3v-7.2h16.4v16.4c-3.9,3.3-9.2,6-16.1,6
		C159.6,130.6,151.5,122.3,151.5,111.2z"/>
	<path class="st1" d="M194.7,90.6h8.6v7.3h-8.6V90.6z M194.9,101.1h8.2v28.9h-8.2V101.1z"/>
	<path class="st1" d="M210.3,135.6l2.8-6.1c3,1.7,5.9,2.6,9.7,2.6c5.6,0,8.2-2.7,8.2-7.9v-1.4c-2.4,2.9-5.1,4.7-9.4,4.7
		c-6.7,0-12.8-4.9-12.8-13.5V114c0-8.6,6.2-13.5,12.8-13.5c4.5,0,7.1,1.9,9.3,4.3v-3.8h8.2v22.3c0,5.2-1.2,9-3.7,11.4
		c-2.7,2.7-6.8,3.9-12.4,3.9C218.4,138.6,214,137.6,210.3,135.6z M231.1,114.1V114c0-3.9-3.1-6.7-7.1-6.7c-4,0-7,2.8-7,6.7v0.1
		c0,4,3,6.7,7,6.7C228,120.8,231.1,118,231.1,114.1z"/>
	<path class="st1" d="M244.6,121.6v-0.1c0-6.3,4.8-9.2,11.6-9.2c2.9,0,5,0.5,7.1,1.2V113c0-3.4-2.1-5.3-6.2-5.3
		c-3.1,0-5.3,0.6-8,1.6l-2-6.2c3.2-1.4,6.3-2.3,11.2-2.3c4.5,0,7.7,1.2,9.7,3.2c2.1,2.1,3.1,5.3,3.1,9.2v16.8h-7.9v-3.1
		c-2,2.2-4.7,3.7-8.7,3.7C249.1,130.5,244.6,127.3,244.6,121.6z M263.4,119.7v-1.5c-1.4-0.6-3.2-1.1-5.2-1.1c-3.5,0-5.7,1.4-5.7,4
		v0.1c0,2.2,1.8,3.5,4.5,3.5C260.8,124.8,263.4,122.7,263.4,119.7z"/>
	<path class="st1" d="M279,92.2h7.6l17.7,23.2V92.2h8.2v37.7h-7.1l-18.3-24v24H279L279,92.2L279,92.2z"/>
	<path class="st1" d="M319.1,115.7v-0.1c0-8.2,5.9-15,14.3-15c9.6,0,14.1,7.5,14.1,15.7c0,0.6-0.1,1.4-0.1,2.1h-20.1
		c0.8,3.7,3.4,5.7,7.1,5.7c2.8,0,4.7-0.9,7-3l4.7,4.2c-2.7,3.3-6.6,5.4-11.8,5.4C325.5,130.6,319.1,124.5,319.1,115.7z M339.5,113.2
		c-0.5-3.7-2.6-6.1-6.1-6.1c-3.4,0-5.6,2.4-6.2,6.1H339.5z"/>
	<path class="st1" d="M354.2,121.7v-13.7h-3.4v-7h3.4v-7.4h8.2v7.4h6.8v7h-6.8v12.3c0,1.9,0.8,2.8,2.6,2.8c1.5,0,2.9-0.4,4-1v6.6
		c-1.7,1-3.7,1.7-6.5,1.7C357.5,130.4,354.2,128.4,354.2,121.7z"/>
	<path class="st1" d="M373.9,124.2l14.9-16.5h-14.4v-6.6H399v5.8l-15,16.5h15v6.6h-25.1V124.2z"/>
</g>
</svg>
